<svg xmlns="http://www.w3.org/2000/svg" viewBox="0 0 512 512" width="512" height="512">
  <title>Household Matters — logo: fresh flower in a pot · логотип: свежий цветок в горшке</title>
  <rect width="512" height="512" rx="96" fill="#FFF8EE"/>
  <path d="M392,72 L400,92 L420,100 L400,108 L392,128 L384,108 L364,100 L384,92 Z" fill="#FAC775"/>
  <path d="M256,330 C256,260 252,225 256,180" stroke="#639922" stroke-width="16" fill="none" stroke-linecap="round"/>
  <path d="M254,302 C214,292 200,262 206,242 C236,252 252,272 254,302" fill="#97C459"/>
  <path d="M258,266 C298,256 312,226 306,206 C276,216 260,236 258,266" fill="#97C459"/>
  <circle cx="256" cy="96" r="48" fill="#ED93B1"/>
  <circle cx="205" cy="133" r="48" fill="#ED93B1"/>
  <circle cx="224" cy="194" r="48" fill="#ED93B1"/>
  <circle cx="288" cy="194" r="48" fill="#ED93B1"/>
  <circle cx="307" cy="133" r="48" fill="#ED93B1"/>
  <circle cx="256" cy="150" r="42" fill="#EF9F27"/>
  <path d="M156,330 L356,330 L332,452 L180,452 Z" fill="#D85A30"/>
  <rect x="142" y="316" width="228" height="34" rx="17" fill="#BC4A26"/>
</svg>
